<?xml version="1.0" standalone="no"?>
<!DOCTYPE svg PUBLIC "-//W3C//DTD SVG 20010904//EN"
 "http://www.w3.org/TR/2001/REC-SVG-20010904/DTD/svg10.dtd">
<svg version="1.0" xmlns="http://www.w3.org/2000/svg"
 width="3091.000000pt" height="1184.000000pt" viewBox="0 0 3091.000000 1184.000000"
 preserveAspectRatio="xMidYMid meet">
<metadata>
Created by potrace 1.15, written by Peter Selinger 2001-2017
</metadata>
<g transform="translate(0.000000,1184.000000) scale(0.100000,-0.100000)"
fill="#000000" stroke="none">
<path d="M9890 11793 c-237 -113 -771 -335 -1150 -478 -1086 -410 -2009 -649
-2724 -706 -200 -16 -556 -6 -694 19 l-104 18 -121 -125 c-1206 -1246 -2648
-2299 -3922 -2864 -347 -154 -721 -290 -1020 -372 -77 -21 -144 -43 -150 -48
-7 -7 -4 -8 7 -4 37 13 279 56 398 71 404 51 798 41 1134 -29 453 -94 823
-302 1066 -600 63 -77 155 -215 190 -285 12 -25 23 -46 24 -47 1 -1 26 4 56
12 173 46 530 91 853 107 628 32 1272 -62 1817 -263 171 -63 500 -225 650
-319 386 -243 719 -556 993 -932 l78 -108 61 31 c219 110 580 259 858 354
1080 367 2106 466 2995 288 437 -87 770 -213 1290 -486 1438 -756 2128 -1561
2459 -2865 63 -249 99 -428 161 -807 106 -646 201 -1028 316 -1274 l40 -86 19
25 c23 30 100 222 134 335 82 270 142 552 217 1020 93 586 196 997 346 1375
399 1009 1110 1697 2444 2366 274 137 434 205 640 272 694 228 1448 271 2309
131 638 -103 1352 -328 1939 -610 79 -38 145 -68 146 -67 94 147 289 383 449
543 591 590 1335 936 2261 1049 510 63 1168 34 1651 -72 l81 -18 33 60 c235
433 624 718 1160 850 433 106 945 110 1467 11 73 -14 141 -28 150 -32 12 -4
15 -3 8 4 -5 5 -80 29 -165 53 -1202 335 -2554 1117 -3865 2236 -296 252 -545
483 -862 799 -318 317 -322 320 -355 313 -130 -28 -324 -40 -558 -35 -261 6
-395 19 -690 68 -871 143 -2056 530 -3254 1062 l-248 110 -567 -380 c-311
-209 -1216 -814 -2011 -1345 l-1445 -966 -60 22 c-33 12 -79 31 -102 42 l-43
19 56 95 c247 417 411 855 459 1223 20 157 20 257 0 257 -8 0 -70 -22 -137
-49 -318 -127 -680 -315 -1046 -543 l-143 -90 -49 46 c-154 144 -343 208 -515
173 -104 -21 -205 -72 -280 -140 l-61 -55 -162 99 c-232 141 -388 228 -622
343 -193 96 -475 216 -506 216 -33 0 -7 -281 45 -495 39 -157 72 -262 133
-415 56 -141 185 -408 252 -520 24 -41 41 -78 38 -82 -14 -14 -196 -79 -211
-75 -9 2 -893 590 -1964 1307 -1072 716 -1956 1304 -1965 1306 -10 1 -60 -18
-112 -43z"/>
</g>
</svg>
