<?xml version="1.0" standalone="no"?>
<!DOCTYPE svg PUBLIC "-//W3C//DTD SVG 20010904//EN"
 "http://www.w3.org/TR/2001/REC-SVG-20010904/DTD/svg10.dtd">
<svg version="1.0" xmlns="http://www.w3.org/2000/svg"
 width="332.000000pt" height="292.000000pt" viewBox="0 0 332.000000 292.000000"
 preserveAspectRatio="xMidYMid meet">
<metadata>
Created by potrace 1.15, written by Peter Selinger 2001-2017
</metadata>
<g transform="translate(0.000000,292.000000) scale(0.100000,-0.100000)"
fill="#000000" stroke="none">
<path d="M2660 2898 c0 -63 54 -132 170 -218 37 -28 80 -67 96 -88 l27 -37
-34 31 c-40 38 -66 51 -179 95 -136 52 -174 80 -209 159 l-21 45 0 -43 c0 -87
53 -151 179 -217 148 -78 221 -177 221 -302 0 -71 2 -70 -85 -48 -105 27 -205
114 -237 205 -19 55 -38 31 -38 -48 0 -72 32 -128 95 -163 85 -48 86 -50 22
-121 -113 -128 -215 -225 -261 -248 -66 -31 -116 -24 -256 38 -240 107 -370
127 -805 127 -351 -1 -439 -9 -585 -56 -171 -56 -318 -172 -378 -300 -44 -92
-88 -272 -76 -307 20 -56 102 -62 120 -10 4 13 8 64 9 113 0 71 5 100 23 140
21 46 24 48 35 30 6 -12 13 -90 15 -191 6 -225 -3 -243 -134 -273 -119 -28
-145 -69 -174 -278 -34 -247 -82 -427 -165 -624 -19 -46 -35 -92 -35 -102 0
-64 74 -100 167 -81 l30 6 -19 51 c-34 87 -22 178 62 482 39 143 79 271 89
285 19 26 24 30 191 108 115 54 238 141 314 222 l49 52 -7 -43 c-11 -71 -59
-161 -125 -234 -94 -103 -115 -156 -91 -221 16 -42 402 -688 418 -700 10 -7
13 -19 8 -38 l-7 -27 78 3 78 3 3 40 c3 38 1 41 -32 53 -75 27 -159 156 -299
457 -106 228 -102 217 -75 235 122 81 252 209 326 323 l47 72 75 -11 c41 -7
143 -19 225 -29 83 -9 152 -19 155 -21 10 -10 3 -345 -8 -419 -27 -167 -84
-350 -147 -475 -30 -60 -32 -93 -5 -120 15 -15 20 -33 20 -74 0 -52 1 -54 31
-60 17 -3 53 -6 80 -6 l49 0 0 39 c0 30 -7 46 -30 69 -40 40 -39 72 5 203 88
259 165 641 165 820 0 57 -10 54 137 37 l101 -11 6 -32 c8 -38 63 -153 144
-299 69 -122 70 -125 223 -518 66 -170 117 -288 125 -288 7 0 16 -10 20 -22 9
-31 22 -38 70 -38 38 0 42 2 48 31 10 50 8 54 -29 72 -72 34 -106 105 -186
382 -48 166 -51 183 -40 223 15 58 14 72 -9 112 -79 138 -112 236 -126 371
l-7 67 74 49 c157 106 398 316 480 417 27 34 55 67 61 75 15 19 75 9 168 -28
46 -19 94 -30 124 -31 42 0 53 5 82 34 48 48 45 75 -13 128 -118 107 -170 182
-187 268 -4 19 -1 91 5 160 21 213 -8 265 -221 397 -119 74 -153 103 -189 163
-21 35 -21 35 -21 8z"/>
</g>
</svg>
